PathFileType	4	(X/Y/Z)	S1_nor_slow_right.trc
DataRate	CameraRate	NumFrames	NumMarkers	Units	OrigDataRate	OrigDataStartFrame	OrigNumFrames
250.00	250.00	12	18	mm	250.00	6182	9891
Frame#	Time	c7	r_should	l_should	clavicle	r_upa	r_elb_l	r_elb_m	r_low	r_wri_l	r_wri_m	r_met	l_upa	l_elb_l	l_elb_m	l_low	l_wri_l	l_wri_m	l_met
	X1	Y1	Z1	X2	Y2	Z2	X3	Y3	Z3	X4	Y4	Z4	X5	Y5	Z5	X6	Y6	Z6	X7	Y7	Z7	X8	Y8	Z8	X9	Y9	Z9	X10	Y10	Z10	X11	Y11	Z11	X12	Y12	Z12	X13	Y13	Z13	X14	Y14	Z14	X15	Y15	Z15	X16	Y16	Z16	X17	Y17	Z17	X18	Y18	Z18
6182	24.72400	892.36212	1420.45142	101.41656	972.48151	1337.97644	266.93851	919.86761	1372.48279	-100.22860	1026.01562	1300.91382	66.64467	974.71436	1125.57288	303.64737	997.71118	1027.91260	312.55997	943.82684	1006.39893	224.44084	985.02838	890.43219	290.87674	1065.89600	819.30847	313.71463	1040.13904	804.72266	242.66719	1060.94287	737.48511	335.74634	909.55969	1151.59937	-148.17201	912.75916	1065.52783	-164.10020	854.41364	1041.35535	-79.39843	855.84442	927.26929	-175.49504	924.82990	830.72552	-163.72713	852.94897	827.36279	-177.12086	935.43439	755.93121	-188.72340
6183	24.72800	892.30463	1420.46313	101.39172	972.42761	1338.00122	266.92715	919.80316	1372.44849	-100.23444	1025.96606	1300.93433	66.63474	974.56018	1125.57825	303.65729	997.53357	1027.97058	312.61456	943.66980	1006.44324	224.53023	985.02637	890.50092	290.90155	1066.01123	819.49762	313.67322	1040.27380	804.90387	242.60838	1061.22559	737.62201	335.64447	909.51868	1151.56494	-148.15108	912.72888	1065.49292	-164.06903	854.37976	1041.33118	-79.37123	855.81982	927.23285	-175.46059	924.80859	830.69116	-163.67307	852.92853	827.32556	-177.06625	935.43445	755.89832	-188.66670
6184	24.73200	892.24969	1420.47522	101.37755	972.36633	1338.02734	266.90836	919.73480	1372.41821	-100.24446	1025.91943	1300.94934	66.63146	974.42175	1125.60266	303.69019	997.35736	1028.03357	312.68381	943.50574	1006.48676	224.61191	985.03003	890.56207	290.93124	1066.12964	819.68634	313.63718	1040.39832	805.08997	242.56184	1061.50940	737.75928	335.53867	909.46936	1151.52808	-148.12549	912.69208	1065.45447	-164.04027	854.34686	1041.29333	-79.34165	855.79181	927.19495	-175.41830	924.78601	830.66241	-163.62082	852.91156	827.27997	-177.01236	935.43146	755.85217	-188.60843
6185	24.73600	892.19073	1420.47571	101.36882	972.29828	1338.05774	266.89050	919.66608	1372.39355	-100.25462	1025.87744	1300.95959	66.63383	974.30109	1125.64563	303.74002	997.17389	1028.10815	312.75595	943.34467	1006.51276	224.68529	985.03076	890.61609	290.96246	1066.24756	819.87701	313.60141	1040.52844	805.28027	242.52052	1061.78760	737.91418	335.43848	909.42651	1151.49792	-148.10358	912.65094	1065.42053	-164.00841	854.31818	1041.25647	-79.31376	855.76532	927.15546	-175.37614	924.76453	830.63147	-163.57008	852.89404	827.23602	-176.95901	935.42279	755.80426	-188.54279
6186	24.74000	892.13202	1420.47571	101.35646	972.24103	1338.07947	266.86624	919.58801	1372.36377	-100.26448	1025.82520	1300.97583	66.62920	974.18811	1125.68250	303.79648	996.98956	1028.17310	312.82800	943.19202	1006.54578	224.76289	985.03076	890.66980	290.98944	1066.36377	820.07025	313.56763	1040.65759	805.47644	242.48076	1062.08777	738.07538	335.33044	909.38025	1151.46851	-148.08502	912.61218	1065.38245	-163.98105	854.28918	1041.21594	-79.28232	855.74255	927.11163	-175.33037	924.74054	830.59827	-163.51440	852.87555	827.18835	-176.90112	935.40833	755.77319	-188.49098
6187	24.74400	892.07349	1420.48218	101.34081	972.18848	1338.09497	266.84201	919.50323	1372.33667	-100.27673	1025.77588	1300.99500	66.61491	974.07440	1125.71814	303.85504	996.81342	1028.23083	312.88281	943.02014	1006.58380	224.85155	985.03210	890.72186	291.01221	1066.47668	820.26245	313.53738	1040.79211	805.67419	242.44179	1062.39246	738.24170	335.22617	909.32965	1151.43542	-148.06856	912.57404	1065.33801	-163.95450	854.26343	1041.17065	-79.24361	855.71661	927.06256	-175.28102	924.71631	830.55988	-163.45602	852.85760	827.13763	-176.84705	935.39606	755.73572	-188.43721
6188	24.74800	892.01862	1420.47266	101.33601	972.13141	1338.11145	266.82428	919.41870	1372.30164	-100.28622	1025.73035	1301.01477	66.59644	973.95526	1125.75269	303.90207	996.62280	1028.29028	312.94089	942.84442	1006.60718	224.93004	985.03259	890.77747	291.03918	1066.59326	820.44928	313.50287	1040.93579	805.87518	242.39644	1062.69800	738.41138	335.12222	909.28070	1151.39221	-148.04977	912.53583	1065.29663	-163.92902	854.24652	1041.12317	-79.20052	855.68939	927.00830	-175.22502	924.69635	830.51825	-163.39943	852.83917	827.07880	-176.79546	935.39160	755.69000	-188.37799
6189	24.75200	891.96265	1420.46912	101.32006	972.07043	1338.12415	266.80188	919.32642	1372.25818	-100.29378	1025.68323	1301.03467	66.58310	973.81519	1125.78845	303.94559	996.43518	1028.34595	312.99942	942.66699	1006.62720	225.01949	985.03528	890.83813	291.06238	1066.71851	820.63794	313.46310	1041.08447	806.07843	242.35226	1063.00073	738.57703	335.02124	909.22815	1151.34692	-148.02376	912.49121	1065.25464	-163.90302	854.22131	1041.07361	-79.15350	855.66089	926.95782	-175.17200	924.67340	830.47504	-163.34091	852.82300	827.02240	-176.73833	935.37689	755.64825	-188.32303
6190	24.75600	891.90594	1420.47986	101.29471	972.01276	1338.14136	266.77130	919.22803	1372.21375	-100.30486	1025.63428	1301.05725	66.56216	973.69788	1125.89465	304.07147	996.24487	1028.39917	313.04962	942.48877	1006.65973	225.11760	985.03369	890.90192	291.08102	1066.84424	820.82294	313.41977	1041.23718	806.28094	242.30162	1063.30615	738.73450	334.92935	909.17206	1151.30188	-147.99957	912.44263	1065.20605	-163.87041	854.19293	1041.02515	-79.09734	855.62994	926.89874	-175.11482	924.64587	830.42462	-163.27167	852.80090	826.96686	-176.68501	935.36102	755.59766	-188.26651
6191	24.76000	891.84320	1420.48718	101.27242	971.95825	1338.16223	266.74295	919.12659	1372.17590	-100.31496	1025.58704	1301.07727	66.54619	973.58960	1126.02820	304.21616	996.05902	1028.45471	313.10159	942.32367	1006.69049	225.18980	985.03351	890.96295	291.09274	1066.97754	821.01715	313.37720	1041.39966	806.48199	242.24770	1063.63403	738.89795	334.83200	909.11713	1151.25476	-147.98021	912.39032	1065.15356	-163.83487	854.15906	1040.97888	-79.04214	855.59808	926.83453	-175.05350	924.61859	830.37189	-163.20351	852.77600	826.90082	-176.61739	935.34796	755.54181	-188.20128
6192	24.76400	891.78668	1420.49023	101.24694	971.90778	1338.18359	266.72147	919.02234	1372.13708	-100.32983	1025.53931	1301.10095	66.52149	973.42236	1126.01306	304.20306	995.86102	1028.50610	313.14813	942.16461	1006.72638	225.25427	985.03864	891.02600	291.10059	1067.11462	821.21136	313.33728	1041.55676	806.68671	242.20123	1063.95361	739.06134	334.73926	909.05737	1151.20703	-147.95967	912.33588	1065.11108	-163.80574	854.12897	1040.92932	-78.99081	855.56335	926.76508	-174.98993	924.58704	830.31476	-163.13643	852.75201	826.83313	-176.54678	935.32977	755.49298	-188.13510
6193	24.76800	891.72791	1420.48352	101.23281	971.86127	1338.20850	266.70813	918.92035	1372.09424	-100.34280	1025.49072	1301.12195	66.49107	973.32458	1126.18433	304.37744	995.66132	1028.56018	313.19131	941.99744	1006.74487	225.32559	985.04004	891.08954	291.11090	1067.24109	821.39996	313.30173	1041.71252	806.88916	242.15041	1064.26440	739.22760	334.65356	908.99316	1151.15356	-147.93539	912.27844	1065.06042	-163.76900	854.09222	1040.87756	-78.94641	855.52551	926.69879	-174.92390	924.55902	830.25873	-163.07350	852.71924	826.76727	-176.48016	935.30768	755.44598	-188.07692
